<svg t="1657187686971" class="icon" viewBox="0 0 1024 1024" version="1.1" xmlns="http://www.w3.org/2000/svg"
     p-id="14193" width="200" height="200">
    <path d="M400.756383 521.126868c-17.171078 0-31.092136 13.922081-31.092136 31.092136l0 30.332842c0 17.171078 13.922081 31.092136 31.092136 31.092136 17.170055 0 31.092136-13.922081 31.092136-31.092136l0-30.332842C431.848519 535.047926 417.926438 521.126868 400.756383 521.126868z"
          p-id="14194"></path>
    <path d="M622.698195 521.126868c-17.171078 0-31.092136 13.922081-31.092136 31.092136l0 30.332842c0 17.171078 13.922081 31.092136 31.092136 31.092136 17.170055 0 31.092136-13.922081 31.092136-31.092136l0-30.332842C653.791353 535.047926 639.869273 521.126868 622.698195 521.126868z"
          p-id="14195"></path>
    <path d="M588.406181 661.936871c-14.20042-9.351995-33.420157-5.374404-42.964534 8.714476-0.132006 0.197498-13.552667 19.669992-34.021861 19.669992-19.903306 0-32.281217-18.025539-33.121352-19.286252-9.134031-14.362102-28.157293-18.724457-42.635029-9.716292-14.589276 9.063423-19.068288 28.233018-10.004865 42.817178 11.158131 17.965164 41.785685 48.368614 85.762269 48.368614 43.763736 0 74.764797-30.176276 86.186941-48.004317C606.78169 690.169889 602.62195 671.299099 588.406181 661.936871z"
          p-id="14196"></path>
    <path d="M366.630145 220.097814c17.171078 0 31.092136-13.922081 31.092136-31.092136l0-10.364045 228.010017 0 0 10.364045c0 17.171078 13.922081 31.092136 31.092136 31.092136 17.170055 0 31.092136-13.922081 31.092136-31.092136L687.916569 95.728248c0-17.171078-13.922081-31.092136-31.092136-31.092136-17.171078 0-31.092136 13.922081-31.092136 31.092136l0 20.72809L397.72228 116.456339 397.72228 95.728248c0-17.171078-13.922081-31.092136-31.092136-31.092136s-31.092136 13.922081-31.092136 31.092136l0 93.276407C335.538009 206.175733 349.46009 220.097814 366.630145 220.097814z"
          p-id="14197"></path>
    <path d="M779.675412 100.035344c-17.170055 0-31.092136 13.922081-31.092136 31.092136s13.922081 31.092136 31.092136 31.092136c52.063773 0 94.415346 43.191708 94.415346 96.28288l0 121.04382L149.363819 379.546316 149.363819 258.430864c0-53.090149 42.351574-96.28288 94.415346-96.28288 17.171078 0 31.092136-13.922081 31.092136-31.092136s-13.922081-31.092136-31.092136-31.092136c-86.348624 0-156.599617 71.086012-156.599617 158.467151l0 543.03176c0 87.38114 70.250994 158.472268 156.594501 158.472268l535.901363 0.070608c86.348624 0 156.599617-71.091128 156.599617-158.472268L936.27503 258.502495C936.27503 171.121356 866.024036 100.035344 779.675412 100.035344zM779.680529 897.821229l-535.901363-0.070608c-52.063773 0-94.415346-43.191708-94.415346-96.287997L149.363819 441.730587l724.726939 0 0 359.802646C874.090758 854.629521 831.739185 897.821229 779.680529 897.821229z"
          p-id="14198"></path>
</svg>
