<svg t="1655099980030" class="icon" viewBox="0 0 1024 1024" version="1.1" xmlns="http://www.w3.org/2000/svg" p-id="6245"
     width="25" height="25">
    <path d="M116.435 572.38066667c-33.54 78.964-38.985 154.297-12.059 168.37 18.572 9.696 47.686-12.382 74.936-52.909 10.791 44.157 37.493 84.137 75.633 116.21-40.004 14.768-66.135 38.886-66.135 66.232 0 44.954 70.709 81.302 157.978 81.302 78.716 0 143.907-29.538 155.94-68.371 3.232-0.049 15.663-0.049 18.796 0 12.083 38.784 77.324 68.371 155.989 68.371 87.267 0 157.978-36.398 157.978-81.302 0-27.297-26.105-51.464-66.135-66.232 38.089-32.123 64.889-72.053 75.631-116.21 27.251 40.527 56.29 62.605 74.887 52.909 26.95-14.073 21.631-89.456-12.032-168.37-26.355-62.058-62.11-107.754-89.457-117.848 0.398-3.929 0.596-7.958 0.596-11.935 0-23.968-6.661-46.146-18.049-64.196 0.199-1.393 0.199-2.834 0.199-4.227 0-11.038-2.636-21.381-7.114-30.332-6.909-161.309-111.93-289.402-281.866-289.402-170.036 0-275.106 128.093-281.943 289.402-4.525 9.001-7.135 19.343-7.135 30.332 0 1.393 0.099 2.835 0.15 4.227-11.288 18.05-17.951 40.178-17.951 64.196 0 3.978 0.15 7.955 0.498 11.935-27.151 10.094-63.028 55.841-89.333 117.848z"
          fill="#EEEEEE"
          p-id="6246"></path>
</svg>
